<svg width="980" height="460" viewBox="0 0 980 460" fill="none" xmlns="http://www.w3.org/2000/svg">
  <defs>
    <filter id="shadow" x="0" y="0" width="980" height="460" filterUnits="userSpaceOnUse" color-interpolation-filters="sRGB">
      <feDropShadow dx="0" dy="18" stdDeviation="20" flood-color="#000000" flood-opacity="0.35"/>
    </filter>
    <pattern id="dots" x="0" y="0" width="4" height="4" patternUnits="userSpaceOnUse">
      <rect x="0" y="1" width="2" height="2" fill="#D4D4D8"/>
    </pattern>
  </defs>

  <g filter="url(#shadow)">
    <rect x="20" y="20" width="940" height="420" rx="14" fill="#0F1117"/>
    <rect x="20.5" y="20.5" width="939" height="419" rx="13.5" stroke="#202430"/>
  </g>

  <text x="56" y="78" fill="#A855F7" font-family="Consolas, 'Courier New', monospace" font-size="30" font-weight="700">sleepoff</text>
  <text x="56" y="112" fill="#8FA0C0" font-family="Consolas, 'Courier New', monospace" font-size="18">Desligamento programado</text>

  <text x="56" y="178" fill="#A78BFA" font-family="Consolas, 'Courier New', monospace" font-size="34" font-weight="700">04:08</text>

  <rect x="56" y="200" width="386" height="18" fill="url(#dots)"/>
  <rect x="56" y="200" width="70" height="18" fill="#7C5CE6"/>
  <text x="456" y="215" fill="#FFFFFF" font-family="Consolas, 'Courier New', monospace" font-size="18" font-weight="700">17%</text>

  <polygon points="56,257 62,263 56,269" fill="#22C55E"/>
  <rect x="54" y="255" width="2" height="16" fill="#22C55E"/>
  <text x="72" y="270" fill="#22C55E" font-family="Consolas, 'Courier New', monospace" font-size="24" font-weight="700">Rodando</text>

  <text x="56" y="305" fill="#8FA0C0" font-family="Consolas, 'Courier New', monospace" font-size="18">Inicio: 11:37  •  Fim: 11:42</text>

  <line x1="56" y1="340.5" x2="270" y2="340.5" stroke="#607090"/>
  <text x="56" y="370" fill="#8FA0C0" font-family="Consolas, 'Courier New', monospace" font-size="18">11:37:52 Timer: 5m</text>

  <text x="56" y="424" fill="#8FA0C0" font-family="Consolas, 'Courier New', monospace" font-size="18">[p] pausar  [c] cancelar  [+/-] ajustar tempo</text>
</svg>
